<mxfile host="Electron" modified="2023-04-13T09:22:05.758Z" agent="Mozilla/5.0 (Windows NT 10.0; Win64; x64) AppleWebKit/537.36 (KHTML, like Gecko) draw.io/21.1.2 Chrome/106.0.5249.199 Electron/21.4.3 Safari/537.36" etag="D0_pFf04ZDzzP2-hM2Z-" version="21.1.2" type="device">
  <diagram name="第 1 页" id="nKpuigqqQq_jZfNUELTV">
    <mxGraphModel dx="1833" dy="1348" grid="1" gridSize="10" guides="1" tooltips="1" connect="1" arrows="1" fold="1" page="1" pageScale="1" pageWidth="827" pageHeight="1169" math="0" shadow="0">
      <root>
        <mxCell id="0" />
        <mxCell id="1" parent="0" />
        <mxCell id="k7aWhxLsQXw_tVmpqBxW-1" style="edgeStyle=none;html=1;entryX=0.5;entryY=0;entryDx=0;entryDy=0;exitX=0.5;exitY=1;exitDx=0;exitDy=0;" edge="1" parent="1" source="k7aWhxLsQXw_tVmpqBxW-26" target="k7aWhxLsQXw_tVmpqBxW-19">
          <mxGeometry relative="1" as="geometry">
            <mxPoint x="909.333333333333" y="200" as="sourcePoint" />
          </mxGeometry>
        </mxCell>
        <mxCell id="k7aWhxLsQXw_tVmpqBxW-2" style="edgeStyle=none;html=1;entryX=0.5;entryY=0;entryDx=0;entryDy=0;exitX=0.5;exitY=1;exitDx=0;exitDy=0;" edge="1" parent="1" source="k7aWhxLsQXw_tVmpqBxW-26" target="k7aWhxLsQXw_tVmpqBxW-10">
          <mxGeometry relative="1" as="geometry">
            <mxPoint x="924" y="191.63461538461524" as="sourcePoint" />
          </mxGeometry>
        </mxCell>
        <mxCell id="k7aWhxLsQXw_tVmpqBxW-3" value="" style="edgeStyle=none;html=1;exitX=0.5;exitY=1;exitDx=0;exitDy=0;" edge="1" parent="1" source="k7aWhxLsQXw_tVmpqBxW-26" target="k7aWhxLsQXw_tVmpqBxW-8">
          <mxGeometry relative="1" as="geometry">
            <mxPoint x="848" y="200" as="sourcePoint" />
          </mxGeometry>
        </mxCell>
        <mxCell id="k7aWhxLsQXw_tVmpqBxW-4" style="edgeStyle=none;html=1;entryX=0.5;entryY=0;entryDx=0;entryDy=0;exitX=0.5;exitY=1;exitDx=0;exitDy=0;" edge="1" parent="1" source="k7aWhxLsQXw_tVmpqBxW-26" target="k7aWhxLsQXw_tVmpqBxW-12">
          <mxGeometry relative="1" as="geometry">
            <mxPoint x="803.6666666666665" y="200" as="sourcePoint" />
          </mxGeometry>
        </mxCell>
        <mxCell id="k7aWhxLsQXw_tVmpqBxW-5" style="edgeStyle=none;html=1;entryX=0.5;entryY=0;entryDx=0;entryDy=0;exitX=0.5;exitY=1;exitDx=0;exitDy=0;" edge="1" parent="1" source="k7aWhxLsQXw_tVmpqBxW-26" target="k7aWhxLsQXw_tVmpqBxW-14">
          <mxGeometry relative="1" as="geometry">
            <mxPoint x="724" y="190" as="sourcePoint" />
          </mxGeometry>
        </mxCell>
        <mxCell id="k7aWhxLsQXw_tVmpqBxW-6" style="edgeStyle=none;html=1;entryX=0.5;entryY=0;entryDx=0;entryDy=0;exitX=0.5;exitY=1;exitDx=0;exitDy=0;" edge="1" parent="1" source="k7aWhxLsQXw_tVmpqBxW-26" target="k7aWhxLsQXw_tVmpqBxW-16">
          <mxGeometry relative="1" as="geometry">
            <mxPoint x="749.333333333333" y="200" as="sourcePoint" />
          </mxGeometry>
        </mxCell>
        <mxCell id="k7aWhxLsQXw_tVmpqBxW-7" style="edgeStyle=none;html=1;" edge="1" parent="1" source="k7aWhxLsQXw_tVmpqBxW-8">
          <mxGeometry relative="1" as="geometry">
            <mxPoint x="820" y="410" as="targetPoint" />
          </mxGeometry>
        </mxCell>
        <mxCell id="k7aWhxLsQXw_tVmpqBxW-8" value="&lt;font style=&quot;font-size: 20px;&quot;&gt;堆&lt;/font&gt;" style="rounded=0;whiteSpace=wrap;html=1;fontSize=20;" vertex="1" parent="1">
          <mxGeometry x="860" y="260" width="120" height="60" as="geometry" />
        </mxCell>
        <mxCell id="k7aWhxLsQXw_tVmpqBxW-9" style="edgeStyle=none;html=1;entryX=0.5;entryY=0;entryDx=0;entryDy=0;" edge="1" parent="1" source="k7aWhxLsQXw_tVmpqBxW-10" target="k7aWhxLsQXw_tVmpqBxW-28">
          <mxGeometry relative="1" as="geometry" />
        </mxCell>
        <mxCell id="k7aWhxLsQXw_tVmpqBxW-10" value="图" style="rounded=0;whiteSpace=wrap;html=1;fontSize=20;" vertex="1" parent="1">
          <mxGeometry x="1180" y="260" width="120" height="60" as="geometry" />
        </mxCell>
        <mxCell id="k7aWhxLsQXw_tVmpqBxW-11" style="edgeStyle=none;html=1;entryX=0.5;entryY=0;entryDx=0;entryDy=0;" edge="1" parent="1" source="k7aWhxLsQXw_tVmpqBxW-12" target="k7aWhxLsQXw_tVmpqBxW-28">
          <mxGeometry relative="1" as="geometry" />
        </mxCell>
        <mxCell id="k7aWhxLsQXw_tVmpqBxW-12" value="哈希表" style="rounded=0;whiteSpace=wrap;html=1;fontSize=20;" vertex="1" parent="1">
          <mxGeometry x="703" y="260" width="120" height="60" as="geometry" />
        </mxCell>
        <mxCell id="k7aWhxLsQXw_tVmpqBxW-13" style="edgeStyle=none;html=1;exitX=0.5;exitY=1;exitDx=0;exitDy=0;entryX=0.5;entryY=0;entryDx=0;entryDy=0;" edge="1" parent="1" source="k7aWhxLsQXw_tVmpqBxW-14" target="k7aWhxLsQXw_tVmpqBxW-28">
          <mxGeometry relative="1" as="geometry" />
        </mxCell>
        <mxCell id="k7aWhxLsQXw_tVmpqBxW-14" value="链表" style="rounded=0;whiteSpace=wrap;html=1;fontSize=20;" vertex="1" parent="1">
          <mxGeometry x="380" y="260" width="120" height="60" as="geometry" />
        </mxCell>
        <mxCell id="k7aWhxLsQXw_tVmpqBxW-15" style="edgeStyle=none;html=1;entryX=0.5;entryY=0;entryDx=0;entryDy=0;" edge="1" parent="1" source="k7aWhxLsQXw_tVmpqBxW-16" target="k7aWhxLsQXw_tVmpqBxW-28">
          <mxGeometry relative="1" as="geometry" />
        </mxCell>
        <mxCell id="k7aWhxLsQXw_tVmpqBxW-16" value="栈" style="rounded=0;whiteSpace=wrap;html=1;fontSize=20;" vertex="1" parent="1">
          <mxGeometry x="540" y="260" width="120" height="60" as="geometry" />
        </mxCell>
        <mxCell id="k7aWhxLsQXw_tVmpqBxW-17" value="" style="edgeStyle=none;html=1;entryX=0.5;entryY=0;entryDx=0;entryDy=0;endArrow=none;exitX=0.5;exitY=1;exitDx=0;exitDy=0;" edge="1" parent="1" source="k7aWhxLsQXw_tVmpqBxW-26" target="k7aWhxLsQXw_tVmpqBxW-19">
          <mxGeometry relative="1" as="geometry">
            <mxPoint x="909.333333333333" y="200" as="sourcePoint" />
            <mxPoint x="1040" y="340" as="targetPoint" />
          </mxGeometry>
        </mxCell>
        <mxCell id="k7aWhxLsQXw_tVmpqBxW-18" style="edgeStyle=none;html=1;entryX=0.5;entryY=0;entryDx=0;entryDy=0;" edge="1" parent="1" source="k7aWhxLsQXw_tVmpqBxW-19" target="k7aWhxLsQXw_tVmpqBxW-28">
          <mxGeometry relative="1" as="geometry" />
        </mxCell>
        <mxCell id="k7aWhxLsQXw_tVmpqBxW-19" value="二叉树" style="rounded=0;whiteSpace=wrap;html=1;fontSize=20;" vertex="1" parent="1">
          <mxGeometry x="1020" y="260" width="120" height="60" as="geometry" />
        </mxCell>
        <mxCell id="k7aWhxLsQXw_tVmpqBxW-20" style="edgeStyle=none;html=1;entryX=0.5;entryY=0;entryDx=0;entryDy=0;fontSize=20;" edge="1" parent="1" source="k7aWhxLsQXw_tVmpqBxW-25" target="k7aWhxLsQXw_tVmpqBxW-34">
          <mxGeometry relative="1" as="geometry" />
        </mxCell>
        <mxCell id="k7aWhxLsQXw_tVmpqBxW-21" style="edgeStyle=none;html=1;entryX=0.5;entryY=0;entryDx=0;entryDy=0;fontSize=20;" edge="1" parent="1" source="k7aWhxLsQXw_tVmpqBxW-25" target="k7aWhxLsQXw_tVmpqBxW-35">
          <mxGeometry relative="1" as="geometry" />
        </mxCell>
        <mxCell id="k7aWhxLsQXw_tVmpqBxW-22" style="edgeStyle=none;html=1;entryX=0.5;entryY=0;entryDx=0;entryDy=0;fontSize=20;" edge="1" parent="1" source="k7aWhxLsQXw_tVmpqBxW-25" target="k7aWhxLsQXw_tVmpqBxW-29">
          <mxGeometry relative="1" as="geometry" />
        </mxCell>
        <mxCell id="k7aWhxLsQXw_tVmpqBxW-23" style="edgeStyle=none;html=1;entryX=0.5;entryY=0;entryDx=0;entryDy=0;fontSize=20;" edge="1" parent="1" source="k7aWhxLsQXw_tVmpqBxW-25" target="k7aWhxLsQXw_tVmpqBxW-33">
          <mxGeometry relative="1" as="geometry" />
        </mxCell>
        <mxCell id="k7aWhxLsQXw_tVmpqBxW-24" style="edgeStyle=none;html=1;entryX=0.5;entryY=0;entryDx=0;entryDy=0;fontSize=20;" edge="1" parent="1" source="k7aWhxLsQXw_tVmpqBxW-25" target="k7aWhxLsQXw_tVmpqBxW-32">
          <mxGeometry relative="1" as="geometry" />
        </mxCell>
        <mxCell id="k7aWhxLsQXw_tVmpqBxW-25" value="数据结构界面" style="rounded=1;whiteSpace=wrap;html=1;direction=south;fontSize=20;" vertex="1" parent="1">
          <mxGeometry x="724" y="560" width="200" height="100" as="geometry" />
        </mxCell>
        <mxCell id="k7aWhxLsQXw_tVmpqBxW-26" value="主界面" style="rounded=1;whiteSpace=wrap;html=1;imageWidth=200;imageHeight=24;fontSize=20;" vertex="1" parent="1">
          <mxGeometry x="724" y="100" width="200" height="100" as="geometry" />
        </mxCell>
        <mxCell id="k7aWhxLsQXw_tVmpqBxW-27" style="edgeStyle=none;html=1;entryX=0;entryY=0.5;entryDx=0;entryDy=0;" edge="1" parent="1" source="k7aWhxLsQXw_tVmpqBxW-28" target="k7aWhxLsQXw_tVmpqBxW-25">
          <mxGeometry relative="1" as="geometry" />
        </mxCell>
        <mxCell id="k7aWhxLsQXw_tVmpqBxW-28" value="点击按钮" style="rounded=0;whiteSpace=wrap;html=1;" vertex="1" parent="1">
          <mxGeometry x="764" y="410" width="120" height="60" as="geometry" />
        </mxCell>
        <mxCell id="k7aWhxLsQXw_tVmpqBxW-29" value="数据结构功能" style="rounded=0;whiteSpace=wrap;html=1;fontSize=20;" vertex="1" parent="1">
          <mxGeometry x="1180" y="710" width="180" height="60" as="geometry" />
        </mxCell>
        <mxCell id="k7aWhxLsQXw_tVmpqBxW-30" style="edgeStyle=none;html=1;entryX=0.5;entryY=0;entryDx=0;entryDy=0;fontSize=20;" edge="1" parent="1" source="k7aWhxLsQXw_tVmpqBxW-32" target="k7aWhxLsQXw_tVmpqBxW-36">
          <mxGeometry relative="1" as="geometry" />
        </mxCell>
        <mxCell id="k7aWhxLsQXw_tVmpqBxW-31" style="edgeStyle=none;html=1;entryX=0.5;entryY=0;entryDx=0;entryDy=0;fontSize=20;" edge="1" parent="1" source="k7aWhxLsQXw_tVmpqBxW-32" target="k7aWhxLsQXw_tVmpqBxW-37">
          <mxGeometry relative="1" as="geometry" />
        </mxCell>
        <mxCell id="k7aWhxLsQXw_tVmpqBxW-32" value="设置" style="rounded=0;whiteSpace=wrap;html=1;fontSize=20;" vertex="1" parent="1">
          <mxGeometry x="380" y="710" width="120" height="60" as="geometry" />
        </mxCell>
        <mxCell id="k7aWhxLsQXw_tVmpqBxW-33" value="返回" style="rounded=0;whiteSpace=wrap;html=1;fontSize=20;" vertex="1" parent="1">
          <mxGeometry x="703" y="710" width="120" height="60" as="geometry" />
        </mxCell>
        <mxCell id="k7aWhxLsQXw_tVmpqBxW-34" value="关闭" style="rounded=0;whiteSpace=wrap;html=1;fontSize=20;" vertex="1" parent="1">
          <mxGeometry x="860" y="710" width="120" height="60" as="geometry" />
        </mxCell>
        <mxCell id="k7aWhxLsQXw_tVmpqBxW-35" value="全屏" style="rounded=0;whiteSpace=wrap;html=1;fontSize=20;" vertex="1" parent="1">
          <mxGeometry x="1020" y="710" width="120" height="60" as="geometry" />
        </mxCell>
        <mxCell id="k7aWhxLsQXw_tVmpqBxW-36" value="结构特有选项" style="rounded=0;whiteSpace=wrap;html=1;fontSize=20;" vertex="1" parent="1">
          <mxGeometry x="240" y="800" width="140" height="60" as="geometry" />
        </mxCell>
        <mxCell id="k7aWhxLsQXw_tVmpqBxW-37" value="通用选项" style="rounded=0;whiteSpace=wrap;html=1;fontSize=20;" vertex="1" parent="1">
          <mxGeometry x="500" y="800" width="120" height="60" as="geometry" />
        </mxCell>
        <mxCell id="k7aWhxLsQXw_tVmpqBxW-38" value="" style="edgeStyle=segmentEdgeStyle;endArrow=classic;html=1;curved=0;rounded=0;endSize=8;startSize=8;fontSize=20;exitX=0.5;exitY=1;exitDx=0;exitDy=0;entryX=1;entryY=0.5;entryDx=0;entryDy=0;" edge="1" parent="1" source="k7aWhxLsQXw_tVmpqBxW-33" target="k7aWhxLsQXw_tVmpqBxW-26">
          <mxGeometry width="50" height="50" relative="1" as="geometry">
            <mxPoint x="750" y="970" as="sourcePoint" />
            <mxPoint x="1450" y="110" as="targetPoint" />
            <Array as="points">
              <mxPoint x="763" y="860" />
              <mxPoint x="1410" y="860" />
              <mxPoint x="1410" y="150" />
            </Array>
          </mxGeometry>
        </mxCell>
      </root>
    </mxGraphModel>
  </diagram>
</mxfile>
